<svg xmlns="http://www.w3.org/2000/svg" viewBox="0 0 1200 470" role="img" aria-label="Modelo operacional y proyecciones">
  <style>text{font-family:Arial,sans-serif;fill:#1E1D1A}.title{font-size:26px;font-weight:700}.code{font-family:monospace;font-size:18px}.small{font-size:15px}.doc{fill:#F7EFDF;stroke:#1E1D1A;stroke-width:3}.hot{fill:#ead1c7;stroke:#C94A2F;stroke-width:3}.green{fill:#d9e2d4;stroke:#4F6B45;stroke-width:3}.line{stroke:#C94A2F;stroke-width:5;fill:none;marker-end:url(#a)}.dash{stroke:#4F6B45;stroke-width:5;stroke-dasharray:12 9;fill:none;marker-end:url(#g)}</style>
  <defs><marker id="a" markerWidth="10" markerHeight="10" refX="9" refY="3" orient="auto"><path d="M0 0L0 6L9 3z" fill="#C94A2F"/></marker><marker id="g" markerWidth="10" markerHeight="10" refX="9" refY="3" orient="auto"><path d="M0 0L0 6L9 3z" fill="#4F6B45"/></marker></defs>
  <text x="65" y="50" class="small">FUENTE OPERACIONAL</text><rect x="55" y="75" width="220" height="180" rx="12" class="doc"/><text x="85" y="115" class="title">catalog_items</text><text x="85" y="155" class="code">sku · precio · activo</text><text x="85" y="192" class="small">precio vigente</text>
  <rect x="395" y="75" width="230" height="180" rx="12" class="hot"/><text x="440" y="115" class="title">orders</text><text x="425" y="155" class="code">items · total · estado</text><text x="425" y="192" class="small">instantanea historica</text>
  <rect x="745" y="75" width="210" height="180" rx="12" class="hot"/><text x="805" y="115" class="title">outbox</text><text x="775" y="155" class="code">event_id · estado</text><text x="775" y="192" class="small">evento recuperable</text>
  <path d="M275 165H395M625 165H745" class="line"/><text x="297" y="145" class="small">precio copiado</text><text x="652" y="145" class="small">transaccion</text>
  <text x="65" y="340" class="small">VISTAS DERIVADAS: CASSANDRA</text><rect x="55" y="365" width="430" height="75" rx="12" class="green"/><text x="82" y="410" class="code">order_timeline_by_order  |  order_id</text><rect x="640" y="365" width="490" height="75" rx="12" class="green"/><text x="668" y="410" class="code">restaurant_activity_by_day  |  restaurant_id, day</text>
  <path d="M850 255V330H270V365M850 255V330H885V365" class="dash"/><text x="885" y="315" class="small">upserts idempotentes</text>
</svg>